<svg width="163" height="21" viewBox="0 0 163 21" fill="none" xmlns="http://www.w3.org/2000/svg">
<path d="M7 13.504V20H11.788V13.504L18.592 0.343999H13.216L9.436 8.576L5.628 0.343999H0.196L7 13.504ZM39.8692 10.116C39.8692 4.208 35.4172 0.0639997 29.8172 0.0639997C24.2452 0.0639997 19.7092 4.208 19.7092 10.116C19.7092 16.024 24.2452 20.196 29.8172 20.196C35.3892 20.196 39.8692 16.024 39.8692 10.116ZM24.6092 10.116C24.6092 6.616 26.6252 4.404 29.8172 4.404C32.9532 4.404 34.9972 6.616 34.9972 10.116C34.9972 13.56 32.9532 15.828 29.8172 15.828C26.6252 15.828 24.6092 13.56 24.6092 10.116ZM42.4489 12.076C42.4489 17.508 46.0049 20.196 50.5689 20.196C55.1049 20.196 58.9129 17.508 58.9129 12.076V0.343999H54.1249V12.104C54.1249 14.428 52.9209 15.772 50.6529 15.772C48.3849 15.772 47.2369 14.428 47.2369 12.104V0.343999H42.4489V12.076ZM72.6631 6.728C72.6631 8.268 71.8231 9.192 70.0311 9.192H67.0631V4.32H70.0311C71.8231 4.32 72.6631 5.272 72.6631 6.728ZM62.2751 0.343999V20H67.0631V12.58H68.2111L72.2991 20H77.7031L73.1671 12.216C76.1911 11.32 77.5351 8.996 77.5351 6.532C77.5351 3.116 75.1271 0.343999 70.3111 0.343999H62.2751ZM86.4743 0.343999V20H97.5343V16.304H91.2623V0.343999H86.4743ZM119.166 10.116C119.166 4.208 114.714 0.0639997 109.114 0.0639997C103.542 0.0639997 99.006 4.208 99.006 10.116C99.006 16.024 103.542 20.196 109.114 20.196C114.686 20.196 119.166 16.024 119.166 10.116ZM103.906 10.116C103.906 6.616 105.922 4.404 109.114 4.404C112.25 4.404 114.294 6.616 114.294 10.116C114.294 13.56 112.25 15.828 109.114 15.828C105.922 15.828 103.906 13.56 103.906 10.116ZM131.014 0.119999C125.134 0.119999 121.018 4.264 121.018 10.144C121.018 16.024 125.162 20.14 131.042 20.14C136.222 20.14 139.498 16.752 140.506 13.364V8.912H130.09V12.44H136.166C135.438 14.652 133.786 15.912 131.406 15.912C127.962 15.912 125.89 13.784 125.89 10.144C125.89 6.728 127.934 4.544 131.014 4.544C132.806 4.544 134.15 5.244 134.878 6.56H140.17C139.134 2.528 135.718 0.119999 131.014 0.119999ZM162.506 10.116C162.506 4.208 158.054 0.0639997 152.454 0.0639997C146.882 0.0639997 142.346 4.208 142.346 10.116C142.346 16.024 146.882 20.196 152.454 20.196C158.026 20.196 162.506 16.024 162.506 10.116ZM147.246 10.116C147.246 6.616 149.262 4.404 152.454 4.404C155.59 4.404 157.634 6.616 157.634 10.116C157.634 13.56 155.59 15.828 152.454 15.828C149.262 15.828 147.246 13.56 147.246 10.116Z" fill="#22262A"/>
</svg>
